<mxfile host="app.diagrams.net" modified="2024-06-18T08:08:50.782Z" agent="Mozilla/5.0 (Macintosh; Intel Mac OS X 10_15_7) AppleWebKit/537.36 (KHTML, like Gecko) Chrome/125.0.0.0 Safari/537.36" etag="ITqv0Tm3r4RbRLtU6L5b" version="24.2.2" type="github">
  <diagram name="第 1 页" id="CVlrNViMkpiZbVWEhwrj">
    <mxGraphModel dx="1259" dy="707" grid="1" gridSize="10" guides="1" tooltips="1" connect="1" arrows="1" fold="1" page="1" pageScale="1" pageWidth="827" pageHeight="1169" math="1" shadow="0">
      <root>
        <mxCell id="0" />
        <mxCell id="1" parent="0" />
        <mxCell id="8PPa_9f1x-YEBCpVxZ_K-1" value="&lt;font style=&quot;font-size: 20px;&quot;&gt;$$a$$&lt;/font&gt;" style="rounded=0;whiteSpace=wrap;html=1;strokeWidth=0.25;shadow=1;fillColor=#e3a5a1;fontSize=20;" vertex="1" parent="1">
          <mxGeometry x="161" y="41" width="40" height="40" as="geometry" />
        </mxCell>
        <mxCell id="8PPa_9f1x-YEBCpVxZ_K-2" value="&lt;span style=&quot;font-size: 20px;&quot;&gt;$$b$$&lt;/span&gt;" style="rounded=0;whiteSpace=wrap;html=1;strokeWidth=0.25;shadow=1;fillColor=#e3a5a1;fontSize=20;" vertex="1" parent="1">
          <mxGeometry x="201" y="41" width="40" height="40" as="geometry" />
        </mxCell>
        <mxCell id="8PPa_9f1x-YEBCpVxZ_K-3" value="&lt;span style=&quot;font-size: 20px;&quot;&gt;$$c$$&lt;/span&gt;" style="rounded=0;whiteSpace=wrap;html=1;strokeWidth=0.25;shadow=1;fillColor=#e3a5a1;fontSize=20;" vertex="1" parent="1">
          <mxGeometry x="241" y="41" width="40" height="40" as="geometry" />
        </mxCell>
        <mxCell id="8PPa_9f1x-YEBCpVxZ_K-4" value="&lt;span style=&quot;font-size: 20px;&quot;&gt;$$b$$&lt;/span&gt;" style="rounded=0;whiteSpace=wrap;html=1;strokeWidth=0.25;shadow=1;fillColor=#e3a5a1;fontSize=20;" vertex="1" parent="1">
          <mxGeometry x="281" y="41" width="40" height="40" as="geometry" />
        </mxCell>
        <mxCell id="8PPa_9f1x-YEBCpVxZ_K-5" value="&lt;span style=&quot;font-size: 20px;&quot;&gt;$$a$$&lt;/span&gt;" style="rounded=0;whiteSpace=wrap;html=1;strokeWidth=0.25;shadow=1;fillColor=#e3a5a1;fontSize=20;" vertex="1" parent="1">
          <mxGeometry x="321" y="41" width="40" height="40" as="geometry" />
        </mxCell>
        <mxCell id="8PPa_9f1x-YEBCpVxZ_K-6" value="&lt;span style=&quot;font-size: 20px;&quot;&gt;$$b$$&lt;/span&gt;" style="rounded=0;whiteSpace=wrap;html=1;strokeWidth=0.25;shadow=1;fillColor=#e3a5a1;fontSize=20;" vertex="1" parent="1">
          <mxGeometry x="161" y="81" width="40" height="40" as="geometry" />
        </mxCell>
        <mxCell id="8PPa_9f1x-YEBCpVxZ_K-7" value="&lt;span style=&quot;font-size: 20px;&quot;&gt;$$d$$&lt;/span&gt;" style="rounded=0;whiteSpace=wrap;html=1;strokeWidth=0.25;shadow=1;fillColor=#e3a5a1;fontSize=20;" vertex="1" parent="1">
          <mxGeometry x="201" y="81" width="40" height="40" as="geometry" />
        </mxCell>
        <mxCell id="8PPa_9f1x-YEBCpVxZ_K-8" value="&lt;span style=&quot;font-size: 20px;&quot;&gt;$$e$$&lt;/span&gt;" style="rounded=0;whiteSpace=wrap;html=1;strokeWidth=0.25;shadow=1;fillColor=#e3a5a1;fontSize=20;" vertex="1" parent="1">
          <mxGeometry x="241" y="81" width="40" height="40" as="geometry" />
        </mxCell>
        <mxCell id="8PPa_9f1x-YEBCpVxZ_K-9" value="&lt;span style=&quot;font-size: 20px;&quot;&gt;$$d$$&lt;/span&gt;" style="rounded=0;whiteSpace=wrap;html=1;strokeWidth=0.25;shadow=1;fillColor=#e3a5a1;fontSize=20;" vertex="1" parent="1">
          <mxGeometry x="281" y="81" width="40" height="40" as="geometry" />
        </mxCell>
        <mxCell id="8PPa_9f1x-YEBCpVxZ_K-10" value="&lt;span style=&quot;font-size: 20px;&quot;&gt;$$b$$&lt;/span&gt;" style="rounded=0;whiteSpace=wrap;html=1;strokeWidth=0.25;shadow=1;fillColor=#e3a5a1;fontSize=20;" vertex="1" parent="1">
          <mxGeometry x="321" y="81" width="40" height="40" as="geometry" />
        </mxCell>
        <mxCell id="8PPa_9f1x-YEBCpVxZ_K-11" value="&lt;span style=&quot;font-size: 20px;&quot;&gt;$$c$$&lt;/span&gt;" style="rounded=0;whiteSpace=wrap;html=1;strokeWidth=0.25;shadow=1;fillColor=#e3a5a1;fontSize=20;" vertex="1" parent="1">
          <mxGeometry x="161" y="121" width="40" height="40" as="geometry" />
        </mxCell>
        <mxCell id="8PPa_9f1x-YEBCpVxZ_K-12" value="&lt;span style=&quot;font-size: 20px;&quot;&gt;$$e$$&lt;/span&gt;" style="rounded=0;whiteSpace=wrap;html=1;strokeWidth=0.25;shadow=1;fillColor=#e3a5a1;fontSize=20;" vertex="1" parent="1">
          <mxGeometry x="201" y="121" width="40" height="40" as="geometry" />
        </mxCell>
        <mxCell id="8PPa_9f1x-YEBCpVxZ_K-13" value="&lt;span style=&quot;font-size: 20px;&quot;&gt;$$f$$&lt;/span&gt;" style="rounded=0;whiteSpace=wrap;html=1;strokeWidth=0.25;shadow=1;fillColor=#e3a5a1;fontSize=20;" vertex="1" parent="1">
          <mxGeometry x="241" y="121" width="40" height="40" as="geometry" />
        </mxCell>
        <mxCell id="8PPa_9f1x-YEBCpVxZ_K-14" value="&lt;span style=&quot;font-size: 20px;&quot;&gt;$$e$$&lt;/span&gt;" style="rounded=0;whiteSpace=wrap;html=1;strokeWidth=0.25;shadow=1;fillColor=#e3a5a1;fontSize=20;" vertex="1" parent="1">
          <mxGeometry x="281" y="121" width="40" height="40" as="geometry" />
        </mxCell>
        <mxCell id="8PPa_9f1x-YEBCpVxZ_K-15" value="&lt;span style=&quot;font-size: 20px;&quot;&gt;$$c$$&lt;/span&gt;" style="rounded=0;whiteSpace=wrap;html=1;strokeWidth=0.25;shadow=1;fillColor=#e3a5a1;fontSize=20;" vertex="1" parent="1">
          <mxGeometry x="321" y="121" width="40" height="40" as="geometry" />
        </mxCell>
        <mxCell id="8PPa_9f1x-YEBCpVxZ_K-16" value="&lt;span style=&quot;color: rgb(0, 0, 0); font-family: Helvetica; font-size: 20px; font-style: normal; font-variant-ligatures: normal; font-variant-caps: normal; font-weight: 400; letter-spacing: normal; orphans: 2; text-align: center; text-indent: 0px; text-transform: none; widows: 2; word-spacing: 0px; -webkit-text-stroke-width: 0px; white-space: normal; background-color: rgb(251, 251, 251); text-decoration-thickness: initial; text-decoration-style: initial; text-decoration-color: initial; float: none; display: inline !important;&quot;&gt;$$b$$&lt;/span&gt;" style="rounded=0;whiteSpace=wrap;html=1;strokeWidth=0.25;shadow=1;fillColor=#e3a5a1;fontSize=20;" vertex="1" parent="1">
          <mxGeometry x="161" y="161" width="40" height="40" as="geometry" />
        </mxCell>
        <mxCell id="8PPa_9f1x-YEBCpVxZ_K-17" value="&lt;span style=&quot;font-size: 20px;&quot;&gt;$$d$$&lt;/span&gt;" style="rounded=0;whiteSpace=wrap;html=1;strokeWidth=0.25;shadow=1;fillColor=#e3a5a1;fontSize=20;" vertex="1" parent="1">
          <mxGeometry x="201" y="161" width="40" height="40" as="geometry" />
        </mxCell>
        <mxCell id="8PPa_9f1x-YEBCpVxZ_K-18" value="&lt;span style=&quot;font-size: 20px;&quot;&gt;$$e$$&lt;/span&gt;" style="rounded=0;whiteSpace=wrap;html=1;strokeWidth=0.25;shadow=1;fillColor=#e3a5a1;fontSize=20;" vertex="1" parent="1">
          <mxGeometry x="241" y="161" width="40" height="40" as="geometry" />
        </mxCell>
        <mxCell id="8PPa_9f1x-YEBCpVxZ_K-19" value="&lt;span style=&quot;font-size: 20px;&quot;&gt;$$d$$&lt;/span&gt;" style="rounded=0;whiteSpace=wrap;html=1;strokeWidth=0.25;shadow=1;fillColor=#e3a5a1;fontSize=20;" vertex="1" parent="1">
          <mxGeometry x="281" y="161" width="40" height="40" as="geometry" />
        </mxCell>
        <mxCell id="8PPa_9f1x-YEBCpVxZ_K-20" value="&lt;span style=&quot;font-size: 20px;&quot;&gt;$$b$$&lt;/span&gt;" style="rounded=0;whiteSpace=wrap;html=1;strokeWidth=0.25;shadow=1;fillColor=#e3a5a1;fontSize=20;" vertex="1" parent="1">
          <mxGeometry x="321" y="161" width="40" height="40" as="geometry" />
        </mxCell>
        <mxCell id="8PPa_9f1x-YEBCpVxZ_K-21" value="&lt;span style=&quot;font-size: 20px;&quot;&gt;$$a$$&lt;/span&gt;" style="rounded=0;whiteSpace=wrap;html=1;strokeWidth=0.25;shadow=1;fillColor=#e3a5a1;fontSize=20;" vertex="1" parent="1">
          <mxGeometry x="161" y="201" width="40" height="40" as="geometry" />
        </mxCell>
        <mxCell id="8PPa_9f1x-YEBCpVxZ_K-22" value="&lt;span style=&quot;font-size: 20px;&quot;&gt;$$b$$&lt;/span&gt;" style="rounded=0;whiteSpace=wrap;html=1;strokeWidth=0.25;shadow=1;fillColor=#e3a5a1;fontSize=20;" vertex="1" parent="1">
          <mxGeometry x="201" y="201" width="40" height="40" as="geometry" />
        </mxCell>
        <mxCell id="8PPa_9f1x-YEBCpVxZ_K-23" value="&lt;span style=&quot;font-size: 20px;&quot;&gt;$$c$$&lt;/span&gt;" style="rounded=0;whiteSpace=wrap;html=1;strokeWidth=0.25;shadow=1;fillColor=#e3a5a1;fontSize=20;" vertex="1" parent="1">
          <mxGeometry x="241" y="201" width="40" height="40" as="geometry" />
        </mxCell>
        <mxCell id="8PPa_9f1x-YEBCpVxZ_K-24" value="&lt;span style=&quot;font-size: 20px;&quot;&gt;$$b$$&lt;/span&gt;" style="rounded=0;whiteSpace=wrap;html=1;strokeWidth=0.25;shadow=1;fillColor=#e3a5a1;fontSize=20;" vertex="1" parent="1">
          <mxGeometry x="281" y="201" width="40" height="40" as="geometry" />
        </mxCell>
        <mxCell id="8PPa_9f1x-YEBCpVxZ_K-25" value="&lt;span style=&quot;font-size: 20px;&quot;&gt;$$a$$&lt;/span&gt;" style="rounded=0;whiteSpace=wrap;html=1;strokeWidth=0.25;shadow=1;fillColor=#e3a5a1;fontSize=20;" vertex="1" parent="1">
          <mxGeometry x="321" y="201" width="40" height="40" as="geometry" />
        </mxCell>
        <mxCell id="8PPa_9f1x-YEBCpVxZ_K-27" value="" style="rounded=0;whiteSpace=wrap;html=1;strokeWidth=0.25;shadow=1;fontSize=20;" vertex="1" parent="1">
          <mxGeometry x="161" y="280" width="40" height="40" as="geometry" />
        </mxCell>
        <mxCell id="8PPa_9f1x-YEBCpVxZ_K-28" value="" style="rounded=0;whiteSpace=wrap;html=1;strokeWidth=0.25;shadow=1;fontSize=20;" vertex="1" parent="1">
          <mxGeometry x="201" y="280" width="40" height="40" as="geometry" />
        </mxCell>
        <mxCell id="8PPa_9f1x-YEBCpVxZ_K-29" value="" style="rounded=0;whiteSpace=wrap;html=1;strokeWidth=0.25;shadow=1;fontSize=20;" vertex="1" parent="1">
          <mxGeometry x="241" y="280" width="40" height="40" as="geometry" />
        </mxCell>
        <mxCell id="8PPa_9f1x-YEBCpVxZ_K-30" value="" style="rounded=0;whiteSpace=wrap;html=1;strokeWidth=0.25;shadow=1;fontSize=20;" vertex="1" parent="1">
          <mxGeometry x="281" y="280" width="40" height="40" as="geometry" />
        </mxCell>
        <mxCell id="8PPa_9f1x-YEBCpVxZ_K-31" value="" style="rounded=0;whiteSpace=wrap;html=1;strokeWidth=0.25;shadow=1;fontSize=20;" vertex="1" parent="1">
          <mxGeometry x="321" y="280" width="40" height="40" as="geometry" />
        </mxCell>
        <mxCell id="8PPa_9f1x-YEBCpVxZ_K-32" value="" style="rounded=0;whiteSpace=wrap;html=1;strokeWidth=0.25;shadow=1;fontSize=20;" vertex="1" parent="1">
          <mxGeometry x="161" y="320" width="40" height="40" as="geometry" />
        </mxCell>
        <mxCell id="8PPa_9f1x-YEBCpVxZ_K-33" value="&lt;span style=&quot;font-size: 20px;&quot;&gt;$$\beta_1$$&lt;/span&gt;" style="rounded=0;whiteSpace=wrap;html=1;strokeWidth=0.25;shadow=1;fillColor=#e4a5a1;fontSize=20;" vertex="1" parent="1">
          <mxGeometry x="201" y="320" width="40" height="40" as="geometry" />
        </mxCell>
        <mxCell id="8PPa_9f1x-YEBCpVxZ_K-34" value="&lt;span style=&quot;font-size: 20px;&quot;&gt;$$\beta_2$$&lt;/span&gt;" style="rounded=0;whiteSpace=wrap;html=1;strokeWidth=0.25;shadow=1;fillColor=#e4a5a1;fontSize=20;" vertex="1" parent="1">
          <mxGeometry x="241" y="320" width="40" height="40" as="geometry" />
        </mxCell>
        <mxCell id="8PPa_9f1x-YEBCpVxZ_K-35" value="&lt;span style=&quot;font-size: 20px;&quot;&gt;$$\beta_1$$&lt;/span&gt;" style="rounded=0;whiteSpace=wrap;html=1;strokeWidth=0.25;shadow=1;fillColor=#e4a5a1;fontSize=20;" vertex="1" parent="1">
          <mxGeometry x="281" y="320" width="40" height="40" as="geometry" />
        </mxCell>
        <mxCell id="8PPa_9f1x-YEBCpVxZ_K-36" value="" style="rounded=0;whiteSpace=wrap;html=1;strokeWidth=0.25;shadow=1;fontSize=20;" vertex="1" parent="1">
          <mxGeometry x="321" y="320" width="40" height="40" as="geometry" />
        </mxCell>
        <mxCell id="8PPa_9f1x-YEBCpVxZ_K-37" value="" style="rounded=0;whiteSpace=wrap;html=1;strokeWidth=0.25;shadow=1;fontSize=20;" vertex="1" parent="1">
          <mxGeometry x="161" y="360" width="40" height="40" as="geometry" />
        </mxCell>
        <mxCell id="8PPa_9f1x-YEBCpVxZ_K-38" value="&lt;span style=&quot;font-size: 20px;&quot;&gt;$$\beta_2$$&lt;/span&gt;" style="rounded=0;whiteSpace=wrap;html=1;strokeWidth=0.25;shadow=1;fillColor=#e4a5a1;fontSize=20;" vertex="1" parent="1">
          <mxGeometry x="201" y="360" width="40" height="40" as="geometry" />
        </mxCell>
        <mxCell id="8PPa_9f1x-YEBCpVxZ_K-39" value="&lt;span style=&quot;font-size: 20px;&quot;&gt;$$\beta_3$$&lt;/span&gt;" style="rounded=0;whiteSpace=wrap;html=1;strokeWidth=0.25;shadow=1;fillColor=#e4a5a1;fontSize=20;" vertex="1" parent="1">
          <mxGeometry x="241" y="360" width="40" height="40" as="geometry" />
        </mxCell>
        <mxCell id="8PPa_9f1x-YEBCpVxZ_K-40" value="&lt;span style=&quot;font-size: 20px;&quot;&gt;$$\beta_2$$&lt;/span&gt;" style="rounded=0;whiteSpace=wrap;html=1;strokeWidth=0.25;shadow=1;fillColor=#e4a5a1;fontSize=20;" vertex="1" parent="1">
          <mxGeometry x="281" y="360" width="40" height="40" as="geometry" />
        </mxCell>
        <mxCell id="8PPa_9f1x-YEBCpVxZ_K-41" value="" style="rounded=0;whiteSpace=wrap;html=1;strokeWidth=0.25;shadow=1;fontSize=20;" vertex="1" parent="1">
          <mxGeometry x="321" y="360" width="40" height="40" as="geometry" />
        </mxCell>
        <mxCell id="8PPa_9f1x-YEBCpVxZ_K-42" value="" style="rounded=0;whiteSpace=wrap;html=1;strokeWidth=0.25;shadow=1;fontSize=20;" vertex="1" parent="1">
          <mxGeometry x="161" y="400" width="40" height="40" as="geometry" />
        </mxCell>
        <mxCell id="8PPa_9f1x-YEBCpVxZ_K-43" value="&lt;span style=&quot;font-size: 20px;&quot;&gt;$$\beta_1$$&lt;/span&gt;" style="rounded=0;whiteSpace=wrap;html=1;strokeWidth=0.25;shadow=1;fillColor=#e4a5a1;fontSize=20;" vertex="1" parent="1">
          <mxGeometry x="201" y="400" width="40" height="40" as="geometry" />
        </mxCell>
        <mxCell id="8PPa_9f1x-YEBCpVxZ_K-44" value="&lt;span style=&quot;font-size: 20px;&quot;&gt;$$\beta_2$$&lt;/span&gt;" style="rounded=0;whiteSpace=wrap;html=1;strokeWidth=0.25;shadow=1;fillColor=#e4a5a1;fontSize=20;" vertex="1" parent="1">
          <mxGeometry x="241" y="400" width="40" height="40" as="geometry" />
        </mxCell>
        <mxCell id="8PPa_9f1x-YEBCpVxZ_K-45" value="&lt;span style=&quot;font-size: 20px;&quot;&gt;$$\beta_1$$&lt;/span&gt;" style="rounded=0;whiteSpace=wrap;html=1;strokeWidth=0.25;shadow=1;fillColor=#e4a5a1;fontSize=20;" vertex="1" parent="1">
          <mxGeometry x="281" y="400" width="40" height="40" as="geometry" />
        </mxCell>
        <mxCell id="8PPa_9f1x-YEBCpVxZ_K-46" value="" style="rounded=0;whiteSpace=wrap;html=1;strokeWidth=0.25;shadow=1;fontSize=20;" vertex="1" parent="1">
          <mxGeometry x="321" y="400" width="40" height="40" as="geometry" />
        </mxCell>
        <mxCell id="8PPa_9f1x-YEBCpVxZ_K-47" value="" style="rounded=0;whiteSpace=wrap;html=1;strokeWidth=0.25;shadow=1;fontSize=20;" vertex="1" parent="1">
          <mxGeometry x="161" y="440" width="40" height="40" as="geometry" />
        </mxCell>
        <mxCell id="8PPa_9f1x-YEBCpVxZ_K-48" value="" style="rounded=0;whiteSpace=wrap;html=1;strokeWidth=0.25;shadow=1;fontSize=20;" vertex="1" parent="1">
          <mxGeometry x="201" y="440" width="40" height="40" as="geometry" />
        </mxCell>
        <mxCell id="8PPa_9f1x-YEBCpVxZ_K-49" value="" style="rounded=0;whiteSpace=wrap;html=1;strokeWidth=0.25;shadow=1;fontSize=20;" vertex="1" parent="1">
          <mxGeometry x="241" y="440" width="40" height="40" as="geometry" />
        </mxCell>
        <mxCell id="8PPa_9f1x-YEBCpVxZ_K-50" value="" style="rounded=0;whiteSpace=wrap;html=1;strokeWidth=0.25;shadow=1;fontSize=20;" vertex="1" parent="1">
          <mxGeometry x="281" y="440" width="40" height="40" as="geometry" />
        </mxCell>
        <mxCell id="8PPa_9f1x-YEBCpVxZ_K-51" value="" style="rounded=0;whiteSpace=wrap;html=1;strokeWidth=0.25;shadow=1;fontSize=20;" vertex="1" parent="1">
          <mxGeometry x="321" y="440" width="40" height="40" as="geometry" />
        </mxCell>
        <mxCell id="8PPa_9f1x-YEBCpVxZ_K-52" value="&lt;font style=&quot;font-size: 20px;&quot;&gt;$$a$$&lt;/font&gt;" style="rounded=0;whiteSpace=wrap;html=1;strokeWidth=0.25;shadow=1;fillColor=#C5E0B3;fontSize=20;" vertex="1" parent="1">
          <mxGeometry x="400" y="281" width="40" height="40" as="geometry" />
        </mxCell>
        <mxCell id="8PPa_9f1x-YEBCpVxZ_K-53" value="&lt;span style=&quot;font-size: 20px;&quot;&gt;$$b$$&lt;/span&gt;" style="rounded=0;whiteSpace=wrap;html=1;strokeWidth=0.25;shadow=1;fillColor=#C5E0B3;fontSize=20;" vertex="1" parent="1">
          <mxGeometry x="440" y="281" width="40" height="40" as="geometry" />
        </mxCell>
        <mxCell id="8PPa_9f1x-YEBCpVxZ_K-54" value="&lt;span style=&quot;font-size: 20px;&quot;&gt;$$c$$&lt;/span&gt;" style="rounded=0;whiteSpace=wrap;html=1;strokeWidth=0.25;shadow=1;fillColor=#C5E0B3;fontSize=20;" vertex="1" parent="1">
          <mxGeometry x="480" y="281" width="40" height="40" as="geometry" />
        </mxCell>
        <mxCell id="8PPa_9f1x-YEBCpVxZ_K-55" value="&lt;span style=&quot;font-size: 20px;&quot;&gt;$$b$$&lt;/span&gt;" style="rounded=0;whiteSpace=wrap;html=1;strokeWidth=0.25;shadow=1;fillColor=#C5E0B3;fontSize=20;" vertex="1" parent="1">
          <mxGeometry x="520" y="281" width="40" height="40" as="geometry" />
        </mxCell>
        <mxCell id="8PPa_9f1x-YEBCpVxZ_K-56" value="&lt;span style=&quot;font-size: 20px;&quot;&gt;$$a$$&lt;/span&gt;" style="rounded=0;whiteSpace=wrap;html=1;strokeWidth=0.25;shadow=1;fillColor=#C5E0B3;fontSize=20;" vertex="1" parent="1">
          <mxGeometry x="560" y="281" width="40" height="40" as="geometry" />
        </mxCell>
        <mxCell id="8PPa_9f1x-YEBCpVxZ_K-57" value="&lt;span style=&quot;font-size: 20px;&quot;&gt;$$b$$&lt;/span&gt;" style="rounded=0;whiteSpace=wrap;html=1;strokeWidth=0.25;shadow=1;fillColor=#C5E0B3;fontSize=20;" vertex="1" parent="1">
          <mxGeometry x="400" y="321" width="40" height="40" as="geometry" />
        </mxCell>
        <mxCell id="8PPa_9f1x-YEBCpVxZ_K-58" value="&lt;span style=&quot;font-size: 20px;&quot;&gt;$$\alpha_1$$&lt;/span&gt;" style="rounded=0;whiteSpace=wrap;html=1;strokeWidth=0.25;shadow=1;fillColor=#C5E0B3;fontSize=20;" vertex="1" parent="1">
          <mxGeometry x="440" y="321" width="40" height="40" as="geometry" />
        </mxCell>
        <mxCell id="8PPa_9f1x-YEBCpVxZ_K-59" value="&lt;span style=&quot;font-size: 20px;&quot;&gt;$$\alpha_2$$&lt;/span&gt;" style="rounded=0;whiteSpace=wrap;html=1;strokeWidth=0.25;shadow=1;fillColor=#C5E0B3;fontSize=20;" vertex="1" parent="1">
          <mxGeometry x="480" y="321" width="40" height="40" as="geometry" />
        </mxCell>
        <mxCell id="8PPa_9f1x-YEBCpVxZ_K-60" value="&lt;span style=&quot;font-size: 20px;&quot;&gt;$$\alpha_1$$&lt;/span&gt;" style="rounded=0;whiteSpace=wrap;html=1;strokeWidth=0.25;shadow=1;fillColor=#C5E0B3;fontSize=20;" vertex="1" parent="1">
          <mxGeometry x="520" y="321" width="40" height="40" as="geometry" />
        </mxCell>
        <mxCell id="8PPa_9f1x-YEBCpVxZ_K-61" value="&lt;span style=&quot;font-size: 20px;&quot;&gt;$$b$$&lt;/span&gt;" style="rounded=0;whiteSpace=wrap;html=1;strokeWidth=0.25;shadow=1;fillColor=#C5E0B3;fontSize=20;" vertex="1" parent="1">
          <mxGeometry x="560" y="321" width="40" height="40" as="geometry" />
        </mxCell>
        <mxCell id="8PPa_9f1x-YEBCpVxZ_K-62" value="&lt;span style=&quot;font-size: 20px;&quot;&gt;$$c$$&lt;/span&gt;" style="rounded=0;whiteSpace=wrap;html=1;strokeWidth=0.25;shadow=1;fillColor=#C5E0B3;fontSize=20;" vertex="1" parent="1">
          <mxGeometry x="400" y="361" width="40" height="40" as="geometry" />
        </mxCell>
        <mxCell id="8PPa_9f1x-YEBCpVxZ_K-63" value="&lt;span style=&quot;font-size: 20px;&quot;&gt;$$\alpha_2$$&lt;/span&gt;" style="rounded=0;whiteSpace=wrap;html=1;strokeWidth=0.25;shadow=1;fillColor=#C5E0B3;fontSize=20;" vertex="1" parent="1">
          <mxGeometry x="440" y="361" width="40" height="40" as="geometry" />
        </mxCell>
        <mxCell id="8PPa_9f1x-YEBCpVxZ_K-64" value="&lt;span style=&quot;font-size: 20px;&quot;&gt;$$\alpha_3$$&lt;/span&gt;" style="rounded=0;whiteSpace=wrap;html=1;strokeWidth=0.25;shadow=1;fillColor=#C5E0B3;fontSize=20;" vertex="1" parent="1">
          <mxGeometry x="480" y="361" width="40" height="40" as="geometry" />
        </mxCell>
        <mxCell id="8PPa_9f1x-YEBCpVxZ_K-65" value="&lt;span style=&quot;font-size: 20px;&quot;&gt;$$\alpha_2$$&lt;/span&gt;" style="rounded=0;whiteSpace=wrap;html=1;strokeWidth=0.25;shadow=1;fillColor=#C5E0B3;fontSize=20;" vertex="1" parent="1">
          <mxGeometry x="520" y="361" width="40" height="40" as="geometry" />
        </mxCell>
        <mxCell id="8PPa_9f1x-YEBCpVxZ_K-66" value="&lt;span style=&quot;font-size: 20px;&quot;&gt;$$c$$&lt;/span&gt;" style="rounded=0;whiteSpace=wrap;html=1;strokeWidth=0.25;shadow=1;fillColor=#C5E0B3;fontSize=20;" vertex="1" parent="1">
          <mxGeometry x="560" y="361" width="40" height="40" as="geometry" />
        </mxCell>
        <mxCell id="8PPa_9f1x-YEBCpVxZ_K-67" value="&lt;span style=&quot;color: rgb(0, 0, 0); font-family: Helvetica; font-size: 20px; font-style: normal; font-variant-ligatures: normal; font-variant-caps: normal; font-weight: 400; letter-spacing: normal; orphans: 2; text-align: center; text-indent: 0px; text-transform: none; widows: 2; word-spacing: 0px; -webkit-text-stroke-width: 0px; white-space: normal; background-color: rgb(251, 251, 251); text-decoration-thickness: initial; text-decoration-style: initial; text-decoration-color: initial; float: none; display: inline !important;&quot;&gt;$$b$$&lt;/span&gt;" style="rounded=0;whiteSpace=wrap;html=1;strokeWidth=0.25;shadow=1;fillColor=#C5E0B3;fontSize=20;" vertex="1" parent="1">
          <mxGeometry x="400" y="401" width="40" height="40" as="geometry" />
        </mxCell>
        <mxCell id="8PPa_9f1x-YEBCpVxZ_K-68" value="&lt;span style=&quot;font-size: 20px;&quot;&gt;$$\alpha_1$$&lt;/span&gt;" style="rounded=0;whiteSpace=wrap;html=1;strokeWidth=0.25;shadow=1;fillColor=#C5E0B3;fontSize=20;" vertex="1" parent="1">
          <mxGeometry x="440" y="401" width="40" height="40" as="geometry" />
        </mxCell>
        <mxCell id="8PPa_9f1x-YEBCpVxZ_K-69" value="&lt;span style=&quot;font-size: 20px;&quot;&gt;$$\alpha_2$$&lt;/span&gt;" style="rounded=0;whiteSpace=wrap;html=1;strokeWidth=0.25;shadow=1;fillColor=#C5E0B3;fontSize=20;" vertex="1" parent="1">
          <mxGeometry x="480" y="401" width="40" height="40" as="geometry" />
        </mxCell>
        <mxCell id="8PPa_9f1x-YEBCpVxZ_K-70" value="&lt;span style=&quot;font-size: 20px;&quot;&gt;$$\alpha_1$$&lt;/span&gt;" style="rounded=0;whiteSpace=wrap;html=1;strokeWidth=0.25;shadow=1;fillColor=#C5E0B3;fontSize=20;" vertex="1" parent="1">
          <mxGeometry x="520" y="401" width="40" height="40" as="geometry" />
        </mxCell>
        <mxCell id="8PPa_9f1x-YEBCpVxZ_K-71" value="&lt;span style=&quot;font-size: 20px;&quot;&gt;$$b$$&lt;/span&gt;" style="rounded=0;whiteSpace=wrap;html=1;strokeWidth=0.25;shadow=1;fillColor=#C5E0B3;fontSize=20;" vertex="1" parent="1">
          <mxGeometry x="560" y="401" width="40" height="40" as="geometry" />
        </mxCell>
        <mxCell id="8PPa_9f1x-YEBCpVxZ_K-72" value="&lt;span style=&quot;font-size: 20px;&quot;&gt;$$a$$&lt;/span&gt;" style="rounded=0;whiteSpace=wrap;html=1;strokeWidth=0.25;shadow=1;fillColor=#C5E0B3;fontSize=20;" vertex="1" parent="1">
          <mxGeometry x="400" y="441" width="40" height="40" as="geometry" />
        </mxCell>
        <mxCell id="8PPa_9f1x-YEBCpVxZ_K-73" value="&lt;span style=&quot;font-size: 20px;&quot;&gt;$$b$$&lt;/span&gt;" style="rounded=0;whiteSpace=wrap;html=1;strokeWidth=0.25;shadow=1;fillColor=#C5E0B3;fontSize=20;" vertex="1" parent="1">
          <mxGeometry x="440" y="441" width="40" height="40" as="geometry" />
        </mxCell>
        <mxCell id="8PPa_9f1x-YEBCpVxZ_K-74" value="&lt;span style=&quot;font-size: 20px;&quot;&gt;$$c$$&lt;/span&gt;" style="rounded=0;whiteSpace=wrap;html=1;strokeWidth=0.25;shadow=1;fillColor=#C5E0B3;fontSize=20;" vertex="1" parent="1">
          <mxGeometry x="480" y="441" width="40" height="40" as="geometry" />
        </mxCell>
        <mxCell id="8PPa_9f1x-YEBCpVxZ_K-75" value="&lt;span style=&quot;font-size: 20px;&quot;&gt;$$b$$&lt;/span&gt;" style="rounded=0;whiteSpace=wrap;html=1;strokeWidth=0.25;shadow=1;fillColor=#C5E0B3;fontSize=20;" vertex="1" parent="1">
          <mxGeometry x="520" y="441" width="40" height="40" as="geometry" />
        </mxCell>
        <mxCell id="8PPa_9f1x-YEBCpVxZ_K-76" value="&lt;span style=&quot;font-size: 20px;&quot;&gt;$$a$$&lt;/span&gt;" style="rounded=0;whiteSpace=wrap;html=1;strokeWidth=0.25;shadow=1;fillColor=#C5E0B3;fontSize=20;" vertex="1" parent="1">
          <mxGeometry x="560" y="441" width="40" height="40" as="geometry" />
        </mxCell>
        <mxCell id="8PPa_9f1x-YEBCpVxZ_K-77" value="&lt;span style=&quot;font-size: 20px;&quot;&gt;$$\beta_1$$&lt;/span&gt;" style="rounded=0;whiteSpace=wrap;html=1;strokeWidth=0.25;shadow=1;fillColor=#C5E0B3;fontSize=20;" vertex="1" parent="1">
          <mxGeometry x="440" y="520" width="40" height="40" as="geometry" />
        </mxCell>
        <mxCell id="8PPa_9f1x-YEBCpVxZ_K-78" value="&lt;span style=&quot;font-size: 20px;&quot;&gt;$$\beta_2$$&lt;/span&gt;" style="rounded=0;whiteSpace=wrap;html=1;strokeWidth=0.25;shadow=1;fillColor=#C5E0B3;fontSize=20;" vertex="1" parent="1">
          <mxGeometry x="480" y="520" width="40" height="40" as="geometry" />
        </mxCell>
        <mxCell id="8PPa_9f1x-YEBCpVxZ_K-79" value="&lt;span style=&quot;font-size: 20px;&quot;&gt;$$\beta_1$$&lt;/span&gt;" style="rounded=0;whiteSpace=wrap;html=1;strokeWidth=0.25;shadow=1;fillColor=#C5E0B3;fontSize=20;" vertex="1" parent="1">
          <mxGeometry x="520" y="520" width="40" height="40" as="geometry" />
        </mxCell>
        <mxCell id="8PPa_9f1x-YEBCpVxZ_K-81" value="&lt;span style=&quot;font-size: 20px;&quot;&gt;$$\beta_2$$&lt;/span&gt;" style="rounded=0;whiteSpace=wrap;html=1;strokeWidth=0.25;shadow=1;fillColor=#C5E0B3;fontSize=20;" vertex="1" parent="1">
          <mxGeometry x="440" y="560" width="40" height="40" as="geometry" />
        </mxCell>
        <mxCell id="8PPa_9f1x-YEBCpVxZ_K-82" value="&lt;span style=&quot;font-size: 20px;&quot;&gt;$$\gamma_1$$&lt;/span&gt;" style="rounded=0;whiteSpace=wrap;html=1;strokeWidth=0.25;shadow=1;fillColor=#C5E0B3;fontSize=20;" vertex="1" parent="1">
          <mxGeometry x="480" y="560" width="40" height="40" as="geometry" />
        </mxCell>
        <mxCell id="8PPa_9f1x-YEBCpVxZ_K-83" value="&lt;span style=&quot;font-size: 20px;&quot;&gt;$$\beta_2$$&lt;/span&gt;" style="rounded=0;whiteSpace=wrap;html=1;strokeWidth=0.25;shadow=1;fillColor=#C5E0B3;fontSize=20;" vertex="1" parent="1">
          <mxGeometry x="520" y="560" width="40" height="40" as="geometry" />
        </mxCell>
        <mxCell id="8PPa_9f1x-YEBCpVxZ_K-85" value="&lt;span style=&quot;font-size: 20px;&quot;&gt;$$\beta_1$$&lt;/span&gt;" style="rounded=0;whiteSpace=wrap;html=1;strokeWidth=0.25;shadow=1;fillColor=#C5E0B3;fontSize=20;" vertex="1" parent="1">
          <mxGeometry x="440" y="600" width="40" height="40" as="geometry" />
        </mxCell>
        <mxCell id="8PPa_9f1x-YEBCpVxZ_K-86" value="&lt;span style=&quot;font-size: 20px;&quot;&gt;$$\beta_2$$&lt;/span&gt;" style="rounded=0;whiteSpace=wrap;html=1;strokeWidth=0.25;shadow=1;fillColor=#C5E0B3;fontSize=20;" vertex="1" parent="1">
          <mxGeometry x="480" y="600" width="40" height="40" as="geometry" />
        </mxCell>
        <mxCell id="8PPa_9f1x-YEBCpVxZ_K-87" value="&lt;span style=&quot;font-size: 20px;&quot;&gt;$$\beta_1$$&lt;/span&gt;" style="rounded=0;whiteSpace=wrap;html=1;strokeWidth=0.25;shadow=1;fillColor=#C5E0B3;fontSize=20;" vertex="1" parent="1">
          <mxGeometry x="520" y="600" width="40" height="40" as="geometry" />
        </mxCell>
        <mxCell id="8PPa_9f1x-YEBCpVxZ_K-89" value="" style="rounded=0;whiteSpace=wrap;html=1;strokeWidth=0.25;shadow=1;fontSize=20;" vertex="1" parent="1">
          <mxGeometry x="201" y="520" width="40" height="40" as="geometry" />
        </mxCell>
        <mxCell id="8PPa_9f1x-YEBCpVxZ_K-90" value="" style="rounded=0;whiteSpace=wrap;html=1;strokeWidth=0.25;shadow=1;fontSize=20;" vertex="1" parent="1">
          <mxGeometry x="241" y="520" width="40" height="40" as="geometry" />
        </mxCell>
        <mxCell id="8PPa_9f1x-YEBCpVxZ_K-91" value="" style="rounded=0;whiteSpace=wrap;html=1;strokeWidth=0.25;shadow=1;fontSize=20;" vertex="1" parent="1">
          <mxGeometry x="281" y="520" width="40" height="40" as="geometry" />
        </mxCell>
        <mxCell id="8PPa_9f1x-YEBCpVxZ_K-92" value="" style="rounded=0;whiteSpace=wrap;html=1;strokeWidth=0.25;shadow=1;fontSize=20;" vertex="1" parent="1">
          <mxGeometry x="201" y="560" width="40" height="40" as="geometry" />
        </mxCell>
        <mxCell id="8PPa_9f1x-YEBCpVxZ_K-93" value="&lt;span style=&quot;font-size: 20px;&quot;&gt;$$\delta_1$$&lt;/span&gt;" style="rounded=0;whiteSpace=wrap;html=1;strokeWidth=0.25;shadow=1;fillColor=#C5E0B3;fontSize=20;" vertex="1" parent="1">
          <mxGeometry x="241" y="560" width="40" height="40" as="geometry" />
        </mxCell>
        <mxCell id="8PPa_9f1x-YEBCpVxZ_K-94" value="" style="rounded=0;whiteSpace=wrap;html=1;strokeWidth=0.25;shadow=1;fontSize=20;" vertex="1" parent="1">
          <mxGeometry x="281" y="560" width="40" height="40" as="geometry" />
        </mxCell>
        <mxCell id="8PPa_9f1x-YEBCpVxZ_K-95" value="" style="rounded=0;whiteSpace=wrap;html=1;strokeWidth=0.25;shadow=1;fontSize=20;" vertex="1" parent="1">
          <mxGeometry x="201" y="600" width="40" height="40" as="geometry" />
        </mxCell>
        <mxCell id="8PPa_9f1x-YEBCpVxZ_K-96" value="" style="rounded=0;whiteSpace=wrap;html=1;strokeWidth=0.25;shadow=1;fontSize=20;" vertex="1" parent="1">
          <mxGeometry x="241" y="600" width="40" height="40" as="geometry" />
        </mxCell>
        <mxCell id="8PPa_9f1x-YEBCpVxZ_K-97" value="" style="rounded=0;whiteSpace=wrap;html=1;strokeWidth=0.25;shadow=1;fontSize=20;" vertex="1" parent="1">
          <mxGeometry x="281" y="600" width="40" height="40" as="geometry" />
        </mxCell>
        <mxCell id="8PPa_9f1x-YEBCpVxZ_K-99" value="&lt;font style=&quot;font-size: 20px;&quot;&gt;$$\alpha_1=b^2/a$$&lt;/font&gt;" style="text;html=1;align=center;verticalAlign=middle;whiteSpace=wrap;rounded=0;" vertex="1" parent="1">
          <mxGeometry x="620" y="281" width="160" height="40" as="geometry" />
        </mxCell>
        <mxCell id="8PPa_9f1x-YEBCpVxZ_K-100" value="&lt;font style=&quot;font-size: 20px;&quot;&gt;$$\beta_1=d-\alpha_1$$&lt;/font&gt;" style="text;html=1;align=center;verticalAlign=middle;whiteSpace=wrap;rounded=0;" vertex="1" parent="1">
          <mxGeometry x="760" y="281" width="160" height="40" as="geometry" />
        </mxCell>
        <mxCell id="8PPa_9f1x-YEBCpVxZ_K-101" value="&lt;font style=&quot;font-size: 20px;&quot;&gt;$$\alpha_2=bc/a$$&lt;/font&gt;" style="text;html=1;align=center;verticalAlign=middle;whiteSpace=wrap;rounded=0;" vertex="1" parent="1">
          <mxGeometry x="620" y="321" width="160" height="40" as="geometry" />
        </mxCell>
        <mxCell id="8PPa_9f1x-YEBCpVxZ_K-102" value="&lt;font style=&quot;font-size: 20px;&quot;&gt;$$\alpha_3=c^2/a$$&lt;/font&gt;" style="text;html=1;align=center;verticalAlign=middle;whiteSpace=wrap;rounded=0;" vertex="1" parent="1">
          <mxGeometry x="620" y="361" width="160" height="40" as="geometry" />
        </mxCell>
        <mxCell id="8PPa_9f1x-YEBCpVxZ_K-103" value="&lt;font style=&quot;font-size: 20px;&quot;&gt;$$\beta_2=e-\alpha_2$$&lt;/font&gt;" style="text;html=1;align=center;verticalAlign=middle;whiteSpace=wrap;rounded=0;" vertex="1" parent="1">
          <mxGeometry x="760" y="321" width="160" height="40" as="geometry" />
        </mxCell>
        <mxCell id="8PPa_9f1x-YEBCpVxZ_K-104" value="&lt;font style=&quot;font-size: 20px;&quot;&gt;$$\beta_3=f-\alpha_3$$&lt;/font&gt;" style="text;html=1;align=center;verticalAlign=middle;whiteSpace=wrap;rounded=0;" vertex="1" parent="1">
          <mxGeometry x="760" y="362" width="160" height="40" as="geometry" />
        </mxCell>
        <mxCell id="8PPa_9f1x-YEBCpVxZ_K-105" value="&lt;font style=&quot;font-size: 20px;&quot;&gt;$$\gamma_1=\beta_2^2/\beta_1$$&lt;/font&gt;" style="text;html=1;align=center;verticalAlign=middle;whiteSpace=wrap;rounded=0;" vertex="1" parent="1">
          <mxGeometry x="620" y="561" width="160" height="40" as="geometry" />
        </mxCell>
        <mxCell id="8PPa_9f1x-YEBCpVxZ_K-106" value="&lt;font style=&quot;font-size: 20px;&quot;&gt;$$\delta_1=\beta_3-\gamma_1$$&lt;/font&gt;" style="text;html=1;align=center;verticalAlign=middle;whiteSpace=wrap;rounded=0;" vertex="1" parent="1">
          <mxGeometry x="760" y="561" width="160" height="40" as="geometry" />
        </mxCell>
        <mxCell id="8PPa_9f1x-YEBCpVxZ_K-108" value="&lt;font face=&quot;Consolas&quot; style=&quot;font-size: 20px;&quot;&gt;Original Weight Matrix W&lt;/font&gt;" style="text;html=1;align=center;verticalAlign=middle;whiteSpace=wrap;rounded=0;" vertex="1" parent="1">
          <mxGeometry x="620" y="120" width="220" height="41" as="geometry" />
        </mxCell>
      </root>
    </mxGraphModel>
  </diagram>
</mxfile>
